<?xml version="1.0" encoding="UTF-8"?>
<svg width="32px" height="32px" viewBox="0 0 32 32" version="1.1" xmlns="http://www.w3.org/2000/svg" xmlns:xlink="http://www.w3.org/1999/xlink">
    <title>BOLTSHOP</title>
    <defs>
        <linearGradient x1="0%" y1="0%" x2="100%" y2="100%" id="linearGradient">
            <stop stop-color="#4F46E5" offset="0%"></stop>
            <stop stop-color="#7C3AED" offset="100%"></stop>
        </linearGradient>
    </defs>
    <g stroke="none" stroke-width="1" fill="none" fill-rule="evenodd">
        <rect fill="url(#linearGradient)" x="0" y="0" width="32" height="32" rx="4"></rect>
        <path d="M10,8 L22,8 C22.5522847,8 23,8.44771525 23,9 L23,10 C23,10.5522847 22.5522847,11 22,11 L10,11 C9.44771525,11 9,10.5522847 9,10 L9,9 C9,8.44771525 9.44771525,8 10,8 Z M10,14 L22,14 C22.5522847,14 23,14.4477153 23,15 L23,16 C23,16.5522847 22.5522847,17 22,17 L10,17 C9.44771525,17 9,16.5522847 9,16 L9,15 C9,14.4477153 9.44771525,14 10,14 Z M10,20 L22,20 C22.5522847,20 23,20.4477153 23,21 L23,22 C23,22.5522847 22.5522847,23 22,23 L10,23 C9.44771525,23 9,22.5522847 9,22 L9,21 C9,20.4477153 9.44771525,20 10,20 Z" fill="#FFFFFF" fill-rule="nonzero"></path>
    </g>
</svg>